<?xml version="1.0" encoding="utf-8"?>
<!-- Generator: Adobe Illustrator 24.1.0, SVG Export Plug-In . SVG Version: 6.00 Build 0)  -->
<svg version="1.1" id="Layer_1" xmlns="http://www.w3.org/2000/svg" xmlns:xlink="http://www.w3.org/1999/xlink" x="0px" y="0px"
	 viewBox="0 0 300 300" style="enable-background:new 0 0 300 300;" xml:space="preserve">
<style type="text/css">
	.st0{fill:#FFFFFF;}
</style>
<path class="st0" d="M173.85,114.17c-11.59-1.18-34.2,0.84-55.24,27.69c-4.73,6.03-9.04,12.89-12.92,20.57
	c-4.6-11.83-5.08-24.02-1.32-35.75c5.58-17.42,20.44-32.87,39.79-41.44l-3.88,15.12l12.97,3.33l10.09-39.27l-39.19-10.09
	l-3.34,12.97l16.01,4.12c-23.19,10.57-40.4,28.87-47.33,50.48c-6.25,19.49-3.57,39.75,7.74,58.57c0.13,0.22,0.26,0.43,0.4,0.65
	c-6.65,18.2-11.51,39.77-14.53,64.53h15.75c2.52-19.88,6.2-36.78,10.69-51.01c15.56,12.78,38.22,18.02,60.48,12.93
	c25.52-5.84,42.68-23.85,44.78-46.98C216.9,137.52,198.53,116.69,173.85,114.17 M199.24,159.19c-1.49,16.42-13.72,28.82-32.71,33.17
	c-22.44,5.14-40.94-2.74-51.16-13.67c15.87-37.74,38.29-50.87,56.89-48.97C188.47,131.37,200.57,144.59,199.24,159.19"/>
</svg>
