<?xml version="1.0" encoding="utf-8"?>
<!-- Generator: Adobe Illustrator 24.1.0, SVG Export Plug-In . SVG Version: 6.00 Build 0)  -->
<svg version="1.1" id="Layer_1" xmlns="http://www.w3.org/2000/svg" xmlns:xlink="http://www.w3.org/1999/xlink" x="0px" y="0px"
	 viewBox="0 0 707 292" style="enable-background:new 0 0 707 292;" xml:space="preserve">
<style type="text/css">
	.st0{fill:#FFFFFF;}
</style>
<path class="st0" d="M245.39,176.58c0,18.03-9.58,29.69-24.4,29.69c-15.06,0-24.79-11.65-24.79-29.69v-52.83h-13.43v52.83
	c0,25.83,15.36,43.18,38.22,43.18c22.63,0,37.83-17.35,37.83-43.18v-52.83h-13.43V176.58z"/>
<path class="st0" d="M288.6,166.02l0-29.46h28.43c10.09,0,16.61,5.78,16.61,14.73c0,8.95-6.52,14.73-16.61,14.73H288.6z
	 M347.07,151.29c0-16.47-12.07-27.54-30.03-27.54h-41.86l0,94.24h13.43v-39.02h13.67l33.26,39.02h17.04l-33.68-39.05
	C335.82,178.19,347.07,167.27,347.07,151.29"/>
<path class="st0" d="M404.95,165.93l-19-4.49c-8.32-1.8-11.87-5.4-11.87-12.05c0-8.89,7.3-14.87,18.17-14.87
	c11.15,0,19.22,6.43,21.05,16.78l0.29,1.65l13.38-3.19l-0.3-1.49c-3.24-16.21-16.33-26.28-34.16-26.28
	c-19.44,0-32.5,11.12-32.5,27.68c0,13.05,7.45,21.39,22.15,24.79l19.6,4.48c9.68,2.29,12.94,5.51,12.94,12.74
	c0,9.51-7.51,15.41-19.59,15.41c-13.19,0-22.12-6.97-23.9-18.64l-0.25-1.66l-13.84,2.96l0.17,1.43
	c2.09,17.36,16.58,28.58,36.91,28.58c20.61,0,33.93-11.24,33.93-28.63C428.12,177.87,420.32,169.39,404.95,165.93"/>
<path class="st0" d="M503.52,176.58c0,18.03-9.58,29.69-24.4,29.69c-15.06,0-24.79-11.65-24.79-29.69l0-52.83H440.9v52.83
	c0,25.83,15.36,43.18,38.22,43.18c22.62,0,37.83-17.35,37.83-43.18v-52.83h-13.43V176.58z"/>
<rect x="534.89" y="123.75" class="st0" width="13.43" height="94.24"/>
<polygon class="st0" points="560.94,123.75 560.94,136.56 590.04,136.56 590.04,217.99 603.6,217.99 603.6,136.56 632.57,136.56 
	632.57,123.75 "/>
<path class="st0" d="M159.33,153.91c-1.08,11.9-9.97,20.89-23.78,24.05c-16.2,3.71-29.59-1.85-37.08-9.67
	c11.62-27.39,27.91-36.94,41.41-35.56C151.56,133.91,160.28,143.42,159.33,153.91 M141.18,119.95c-8.74-0.89-25.74,0.62-41.54,20.78
	c-3.27,4.17-6.27,8.87-9,14.09c-2.9-8.22-3.08-16.65-0.47-24.78c3.95-12.32,14.26-23.3,27.75-29.7l-3.43,13.37l11.22,2.88
	l8.61-33.51l-33.45-8.61l-2.89,11.22l13.52,3.48c-16.42,8.03-28.56,21.35-33.56,36.96c-4.69,14.64-2.68,29.84,5.8,43.96
	c0.05,0.08,0.09,0.15,0.14,0.23c-4.9,13.51-8.48,29.48-10.71,47.8h12.94c1.82-14.27,4.43-26.47,7.62-36.78
	c11.66,9.18,28.32,12.89,44.68,9.14c19.2-4.4,32.11-17.96,33.7-35.4C173.7,137.61,159.83,121.85,141.18,119.95"/>
</svg>
